<svg xmlns="http://www.w3.org/2000/svg" viewBox="0 0 32 32" width="32" height="32">
  <defs>
    <linearGradient id="bg" x1="0%" y1="0%" x2="100%" y2="100%">
      <stop offset="0%" stop-color="#4A90D9"/>
      <stop offset="100%" stop-color="#2E6BB5"/>
    </linearGradient>
  </defs>
  <rect width="32" height="32" rx="6" fill="url(#bg)"/>
  <!-- Sun -->
  <circle cx="16" cy="13" r="6" fill="#FFD93D"/>
  <!-- Rays -->
  <g stroke="#FFD93D" stroke-width="1.5" stroke-linecap="round" opacity="0.7">
    <line x1="16" y1="4" x2="16" y2="2"/>
    <line x1="22" y1="7" x2="24" y2="5"/>
    <line x1="25" y1="13" x2="27" y2="13"/>
    <line x1="22" y1="19" x2="24" y2="21"/>
    <line x1="10" y1="7" x2="8" y2="5"/>
    <line x1="7" y1="13" x2="5" y2="13"/>
    <line x1="10" y1="19" x2="8" y2="21"/>
  </g>
  <!-- Book -->
  <g fill="#FFFFFF" opacity="0.95">
    <path d="M16 23 Q16 21.5 10 21 L7 20.7 Q6 20.6 6 21.5 L6 27 Q6 27.8 7 27.9 L10 28.2 Q16 29 16 27.5 Z"/>
    <path d="M16 23 Q16 21.5 22 21 L25 20.7 Q26 20.6 26 21.5 L26 27 Q26 27.8 25 27.9 L22 28.2 Q16 29 16 27.5 Z"/>
  </g>
</svg>
