<svg xmlns="http://www.w3.org/2000/svg" viewBox="0 0 32 32" width="32" height="32">
  <defs>
    <linearGradient id="bg" x1="0%" y1="0%" x2="100%" y2="100%">
      <stop offset="0%" stop-color="#F8FAFF"/>
      <stop offset="100%" stop-color="#EEF2FF"/>
    </linearGradient>
    <linearGradient id="sunG" x1="0%" y1="0%" x2="100%" y2="100%">
      <stop offset="0%" stop-color="#F5A623"/>
      <stop offset="100%" stop-color="#F97316"/>
    </linearGradient>
  </defs>
  <rect width="32" height="32" rx="6" fill="url(#bg)"/>
  <!-- Sun -->
  <circle cx="16" cy="16" r="7" fill="url(#sunG)"/>
  <circle cx="16" cy="16" r="5" fill="none" stroke="#fff" stroke-width="0.5" opacity="0.3"/>
  <circle cx="16" cy="16" r="1.5" fill="#fff" opacity="0.6"/>
  <!-- Rays -->
  <g stroke="#F5A623" stroke-width="1.8" stroke-linecap="round" opacity="0.7">
    <line x1="16" y1="6" x2="16" y2="3"/>
    <line x1="16" y1="26" x2="16" y2="29"/>
    <line x1="6" y1="16" x2="3" y2="16"/>
    <line x1="26" y1="16" x2="29" y2="16"/>
    <line x1="9" y1="9" x2="7" y2="7"/>
    <line x1="23" y1="9" x2="25" y2="7"/>
    <line x1="9" y1="23" x2="7" y2="25"/>
    <line x1="23" y1="23" x2="25" y2="25"/>
  </g>
  <!-- Inner rays -->
  <g stroke="#F5A623" stroke-width="1.2" stroke-linecap="round" opacity="0.35">
    <line x1="12" y1="7" x2="11" y2="4.5"/>
    <line x1="20" y1="7" x2="21" y2="4.5"/>
    <line x1="7" y1="12" x2="4.5" y2="11"/>
    <line x1="7" y1="20" x2="4.5" y2="21"/>
    <line x1="25" y1="12" x2="27.5" y2="11"/>
    <line x1="25" y1="20" x2="27.5" y2="21"/>
    <line x1="12" y1="25" x2="11" y2="27.5"/>
    <line x1="20" y1="25" x2="21" y2="27.5"/>
  </g>
</svg>
